<svg width="600px" height="754px" viewBox="0 0 1000 1000" xmlns="http://www.w3.org/2000/svg"><path d="m412.45 568.91c.06-1.49-34.81-12.67-22.7-15.51s24.57-5.4 24.57-5.4 10.16-8.14 23.26-5.65 35.62.22 35.62.22 4.49 3.13 2.2 10.67-7.17 45.23-6.6 54.46 4.47 36.17 4.47 36.17 9.69 4 11.73 3.62 15.76-4.74 16.45 0c2.06 14.3-35.25 20.57-43.58 8.63 0 0-4.94-33.4-10.13-46s-12-23-15.81-26.2" fill="#78a5a3"/><path d="m718.5 665.52a170.15 170.15 0 0 1 -21.15-40.82c-2.07-5.82-3.85-12-3-18.11s4.92-12.2 10.95-13.55 13.13 3.92 12.14 10q-8.4-28.78-15.89-57.82c-2-7.72-3.74-16.63 1-23.08s18.11-4.37 17.26 3.56c-15.66-54.28-31.47-110-27-166.32 1.62-20.24 6.22-41 18.79-57s34.71-25.64 53.82-18.82c13.81 4.93 23.83 17.49 29.06 31.19s6.32 28.58 7.08 43.22a1129.67 1129.67 0 0 1 -7.17 197.25c1.51-6.92 3.16-14.14 7.78-19.52s13.17-8.06 18.92-3.93c4.85 3.49 5.93 10.22 6 16.2.07 31-17.06 59-33.61 85.21 2.9-3.9 6-8 10.52-9.79s10.72-.3 12.24 4.31c.73 2.2.27 4.59-.29 6.83a77.16 77.16 0 0 1 -25.95 40.7" fill="#cae5e3"/><path d="m736.68 659.14a168.32 168.32 0 0 1 -20.84-40.09c-2.48-7-5.11-15.57-1-22.55 1.73-2.93 4.8-5.67 8.44-5.45a6.79 6.79 0 0 1 6.64 7.17l6-.81q-7.83-26.92-14.91-54.07c-1.82-7-5.25-16.46-1.13-23.25 2.32-3.81 12.61-5.82 12.38.79l6-.81c-10.8-37.38-21.69-75.07-25.88-113.87a266.88 266.88 0 0 1 -.55-56.58c1.77-16.77 6-34 15.95-47.89 9.14-12.74 24.29-22.2 40.27-22.14s28.72 10.92 36 24.51c8.75 16.43 9.4 35.81 10.26 54q1.38 29.61 1.22 59.27a1138.06 1138.06 0 0 1 -8.63 133c-.42 3.41 5.26 4.14 6 .81 1.3-5.92 2.57-12.22 6.26-17.18 3.17-4.26 9.57-7.91 14.85-5.14 9.55 5 5.26 24.84 3.53 32.84-5.14 23.77-18.35 44.8-31.17 65.09-2.15 3.39 3 6.13 5.26 3.07 3.12-4.16 8.2-10.95 14.32-8.64 6.45 2.43.7 14.46-1.23 18.88a76 76 0 0 1 -21.33 28.09c-3 2.51 1.32 6.81 4.31 4.31 13.05-10.84 25.5-28.07 27.34-45.44.71-6.76-3.92-11.91-10.68-12.29-8.15-.45-13.57 6.11-18 12l5.26 3.07c16.12-25.52 33.11-53.07 34-84.17.31-10.91-3.24-24.81-16.9-23.74-14.25 1.13-19.1 15.82-21.69 27.61l6 .81a1136 1136 0 0 0 8.58-128.1q.33-32.12-1.18-64.21c-.87-18.62-1.74-38.05-10.07-55.1-6.61-13.51-18.37-25.42-33.49-28.57s-30.53 2.15-42.31 11.5c-28.64 22.74-31.09 65.69-29.77 99.28 1.82 46.64 14.78 91.91 27.63 136.48 1 3.34 5.87 2.62 6-.81.25-6.92-6.23-10.68-12.55-10.41-8.31.35-13 7.14-13.68 14.95-1 11.09 3.89 23 6.72 33.56q5.38 20.09 11.21 40c1 3.42 5.72 2.55 6-.81.58-7.39-6.17-13.32-13.34-13.26-8.51.06-14.5 8.24-15.74 16-1.65 10.36 3.22 21.09 7.21 30.38a175.28 175.28 0 0 0 17.27 30.91c2.23 3.2 7.51.15 5.26-3.08z" fill="#78a5a3"/><path d="m736.64 755.78c.43-13.48-3.65-26.45-7.11-39.33l-11.33-42.09-2.94 3.86 47.74-2.77c16-.93 32.33-2.91 48.32-1.73 5.22.38 9.49 0 8.17 6.49q-1.14 5.65-2.37 11.31-2.46 11.28-5.26 22.49-5.7 22.89-12.86 45.39c-1.18 3.75 4.7 5.36 5.88 1.62q8.12-25.71 14.45-51.93 2.93-12.17 5.45-24.43c1.13-5.5 3.58-12.74-3.18-15.47-7-2.82-16.59-2-24-1.75-8.9.28-17.79.93-26.68 1.45l-55.73 3.23a3.1 3.1 0 0 0 -2.94 3.86l10.81 40.17c3.49 13 7.84 26.06 7.42 39.63-.13 3.93 6 3.92 6.09 0z" fill="#78a5a3"/><path d="m232.66 745.41a154.83 154.83 0 0 0 -8.28 38.8 136.38 136.38 0 0 0 42.56 2.09 62 62 0 0 1 17.11-26.49" fill="#cae5e3"/><path d="m436.88 759.35a94.57 94.57 0 0 1 11.12 22.73c.5 1.52 1 3.15 2.29 4.15a7.68 7.68 0 0 0 3.38 1.24 105.12 105.12 0 0 0 42-.59c1.74-.38 3.79-1.11 4.14-2.86a4.68 4.68 0 0 0 -.44-2.56q-4.53-12.18-9.07-24.35" fill="#cae5e3"/><path d="m315.88 256s3.17 24.67 9.72 33.25 9.21 12.48 11.45 9.21 4.22-7.13 0-12.8-3.67-15.71 1.36-16.34a13.71 13.71 0 0 0 7.82-3.56l4-29.15s16.28-6.7 22.37-7.83 36.57-4.23 33.64 0-8.19 9.38.19 7.83 29.84-11.72 13.36-21.88-36.32-15.32-43-14.32-21.62 2.68-24.43 6.74-.92 21-8 17.86-19.4-4.75-23.51 3.2-4.64 19.21-4.95 21.74" fill="#78a5a3"/><path d="m469.91 510.46h59.25c22.36 0 23.7-2.57 32-23.38 14.81-37.3 29.61-73.24 44.42-110.53a5.43 5.43 0 0 1 6.17-4.27c28.2-1.44 56.51-.12 84.77.71 57.5 1.7 59 3.38 73.08 2.66 2.37-.12 5-.16 6.81 1.36 1.48 1.24 2.06 3.24 2.41 5.13.9 4.89-3.67 13-5.28 17.35-4.4 12-9.16 23.92-13.91 35.81-10.81 27-23.35 53.87-34.14 80.89-2.91 7.27-5.18 19.71-11.87 23-10.37 5.07-28.32 3.53-39.78 4.28-13.75.89-27.52-.07-41.29 0-55.32.41-143.31-2.76-198.63-1.16" fill="#fff"/><path d="m398.3 236.74a265 265 0 0 1 15 29.22q3.32 7.59 6.1 15.4c1.05 2.92 3.23 7.11 1.12 10.11-1.81 2.58-7.37 1.57-10.05 1.28a3.07 3.07 0 0 0 -3.05 3.05q.51 28-1.09 56c-.22 3.92 5.88 3.91 6.1 0q1.59-28 1.09-56l-3.05 3.05c5.62.6 12.25.53 15.78-4.73 3.77-5.64-.45-13.15-2.55-18.66a269.27 269.27 0 0 0 -20.16-41.79c-2-3.38-7.28-.31-5.27 3.07z"/><path d="m346.11 265.6c-7.3-2.65-14.39 3.5-14.83 10.8-.51 8.41 6 16.6 13.66 19.29 3.71 1.3 5.31-4.59 1.62-5.88a14.69 14.69 0 0 1 -8.78-9.78c-1.22-4.41 1.22-10.54 6.71-8.55 3.69 1.34 5.29-4.55 1.62-5.88z"/><path d="m372.58 264.91a4.9 4.9 0 0 0 -4.17 2.24 7.26 7.26 0 0 0 -1 4.38c.08 1.8.9 3.57 2.77 4.1a3.63 3.63 0 0 0 4.49-2.44 3.07 3.07 0 0 0 -2.13-3.75 3.12 3.12 0 0 0 -3.75 2.13l-.06.15.79-1.34 2.79-.45 1.09 1.09c.13.18.06 1 .11.39q0-.33 0-.66c0-.36 0-.45 0-.26s0 .11.07-.24a.54.54 0 0 1 -.15.3 1.38 1.38 0 0 1 -.87.46 3.08 3.08 0 0 0 3.05-3.05 3.12 3.12 0 0 0 -3.05-3z"/><path d="m398.47 266.27a4.88 4.88 0 0 0 -4.17 2.24 7.26 7.26 0 0 0 -1 4.38c.08 1.79.9 3.57 2.77 4.1a3.64 3.64 0 0 0 4.49-2.44 3.07 3.07 0 0 0 -2.13-3.75 3.12 3.12 0 0 0 -3.75 2.13l-.06.15.79-1.35 2.79-.45 1.09 1.1c.13.17.06 1 .11.39 0-.23 0-.45 0-.67s0-.44 0-.25 0 .1.07-.24a.54.54 0 0 1 -.15.29 1.29 1.29 0 0 1 -.87.46 3.06 3.06 0 0 0 3-3 3.11 3.11 0 0 0 -3-3.05z"/><path d="m394.71 294.53-15.09-2.42c-3.14-.5-7.64-2.15-10.79-1.62-5.81 1-3.81 9.66-2.06 13.32a16.6 16.6 0 0 0 15.49 9.4c6.82-.39 10.17-7 10.28-13.21.07-3.93-6-3.93-6.09 0-.11 5.86-4.44 8.71-9.72 5.85-2.48-1.34-7-6.46-5.55-9.89-1.05.73-1 1.06.22 1l2.83.46 5.66.9 13.2 2.12c3.83.61 5.49-5.26 1.62-5.88z"/><path d="m368.79 304.93c4.79 3 11.12 3.21 16.55 4.18 3.83.68 5.48-5.2 1.62-5.88-4.76-.85-10.92-1-15.09-3.57-3.34-2.07-6.41 3.2-3.08 5.27z"/><path d="m348.35 268.54c.31-7.31 1.35-14.56 2.11-21.83.21-2 .41-4.05.54-6.07 0-.6.77-4.21-.2-2.89 1.21-1.65 8.59-2.67 10.64-3.22a190.2 190.2 0 0 1 46.79-6.53c3.92-.06 3.94-6.16 0-6.1a196.22 196.22 0 0 0 -53.75 8.24c-2.52.76-6.26 1.24-8.14 3.35s-1.35 6.15-1.57 8.82c-.69 8.75-2.14 17.42-2.52 26.19-.16 3.93 5.93 3.92 6.1 0z"/><path d="m413.67 232.64c-3.34-.1-6.62.84-10 .9-3.91.07-3.93 6.16 0 6.09 3.34-.06 6.62-1 10-.9 3.92.12 3.92-6 0-6.09z"/><path d="m337.76 290.89c-1.3 3.71-4 9.12-7.85 3.94-2.16-2.89-3.54-6.76-4.79-10.08a108 108 0 0 1 -5.62-23.86c-1-7.67-2.11-16 .06-23.6 2.1-7.28 8.7-14.28 16.9-12.45 3.82.85 5.45-5 1.62-5.88-9.42-2.1-18.55 3.51-22.64 12-5.21 10.87-3.08 24.13-1.23 35.56a105.19 105.19 0 0 0 4.73 19c1.78 4.93 3.82 10.63 7.35 14.59 7.22 8.12 14.77-.27 17.35-7.61 1.31-3.71-4.58-5.3-5.88-1.62z"/><path d="m342.34 207.1c.75 3.34 1.36 6.71 1.79 10.1a3.14 3.14 0 0 0 3.05 3.05c1.49 0 3.25-1.41 3.05-3.05-.5-3.94-1.14-7.84-2-11.72s-6.73-2.21-5.88 1.62z"/><path d="m351.07 217.2c1.22-16.42 22.58-14.86 33.79-12.24a106.84 106.84 0 0 1 19.33 6.63c5.51 2.46 10.95 4.69 17.09 4.4 3.91-.19 3.93-6.29 0-6.1-8.43.4-16-4.8-23.72-7.55a87.31 87.31 0 0 0 -24.14-5.3c-13-.75-27.37 5.65-28.45 20.16-.29 3.91 5.81 3.9 6.1 0z"/><path d="m313.73 352.28c-20.32 8.79-33.69 28.16-39.11 49.17-6.32 24.51-1.13 49.84 8.78 72.65a252.91 252.91 0 0 0 20.21 36.66c6.7 10.32 13.93 20.56 23.12 28.84 19.44 17.53 45.68 21.4 70.62 15.4 30.27-7.32 54.8-28.08 78-47.75 3-2.54-1.34-6.83-4.32-4.31-19.53 16.55-39.79 33.9-64.18 42.81-22.56 8.23-49.08 9-69.43-5.3-10.15-7.11-18-17.06-24.91-27.21a293.31 293.31 0 0 1 -18.63-31.13c-11-21.5-18.9-46.26-15.12-70.62 3.53-22.78 16.29-44.5 38-53.89 3.59-1.56.49-6.81-3.08-5.27z"/><path d="m463.66 471.74c3.78-3 9.42-3.66 14-4.47s9.71-1.38 14.36 0c8.17 2.49 16.48 10.74 19.59 18.59 1.42 3.6 7.32 2 5.88-1.62-3.92-9.89-13.45-19.77-23.84-22.85-5.74-1.7-11.82-1.08-17.61 0-6 1.08-11.86 2.21-16.73 6-3.08 2.43 1.26 6.71 4.31 4.31z"/><path d="m469.86 498.67a65.41 65.41 0 0 0 8.34 10.77c2.72 2.84 7-1.48 4.31-4.31a57.34 57.34 0 0 1 -7.38-9.54c-2.06-3.33-7.34-.27-5.27 3.08z"/><path d="m486.86 499.68 3.13 4.09c1 1.26 2.67 2.06 4.17 1.09 1.25-.8 2.14-2.82 1.1-4.17l-3.13-4.09c-1-1.26-2.67-2.06-4.17-1.09-1.25.8-2.14 2.82-1.1 4.17z"/><path d="m499.2 494 2.21 5.44a3.15 3.15 0 0 0 3.75 2.13c1.44-.4 2.75-2.22 2.13-3.75l-2.21-5.44a3.14 3.14 0 0 0 -3.75-2.13c-1.45.39-2.75 2.21-2.13 3.75z"/><path d="m435.48 486.13c.14-4.65-1.49-15.62 3.5-17.64 2.37-1 5.54-.9 8.07-1.3 3.08-.49 8.61-2.59 9.81 1.09 1.46 4.46 1.33 16.83-3.3 19.26-2.21 1.16-5.87 1.17-8.3 1.59l-9.12 1.6c-3.86.68-2.23 6.56 1.62 5.88 5.3-.93 10.78-1.56 16-2.83 3.44-.83 6.3-2.43 7.7-5.82 1.79-4.34 2-10.06 1.86-14.67-.07-3.58.1-8.82-2.75-11.53-2.56-2.42-6.12-1.86-9.28-1.39-5 .76-10.95.93-15.71 2.77-8.29 3.19-6 16-6.2 23-.12 3.93 6 3.92 6.09 0z"/><path d="m442.1 493.24a48.86 48.86 0 0 0 7.58 27.42c2.09 3.31 7.36.26 5.26-3.08a42.91 42.91 0 0 1 -6.75-24.34c.09-3.93-6-3.92-6.09 0z"/><path d="m350.58 544.21a86.79 86.79 0 0 1 15.6-55.31 49.48 49.48 0 0 1 4.53-5.76c2.57-2.67 5.64-2.43 9-2.45l16.81-.07 35.61-.16c3.92 0 3.93-6.11 0-6.09l-40.55.17c-5.9 0-12.42-.75-18.23.29-4.84.86-7.73 4.66-10.54 8.37a92.27 92.27 0 0 0 -18.37 61c.23 3.9 6.33 3.93 6.1 0z"/><path d="m359.33 444.53 6.9 15.65c.8 1.82 7.26 14.09 6.16 15-3 2.51 1.32 6.81 4.31 4.31 4.55-3.8 0-10.55-1.75-14.57l-10.36-23.48c-1.58-3.58-6.83-.48-5.26 3.08z"/><path d="m340.33 357.65c13.7 9.45 27.8 19.08 44 23.68 12.94 3.67 30 3.52 35.36-11.4 1.33-3.7-4.56-5.29-5.87-1.62-5.22 14.56-25.78 8.49-36.15 4.29-12.32-5-23.37-12.7-34.25-20.21-3.24-2.23-6.29 3.05-3.08 5.26z"/><path d="m469.91 513.51h54.31c8.76 0 20.21 1.28 27.75-4.3s10.28-16.78 13.55-25q9.91-24.94 20-49.81t20-49.74l2.18-5.49c1.32-3.31 3.61-3.85 6.91-4q6.9-.3 13.79-.42c9.2-.15 18.4-.08 27.6.1 28.89.57 57.83 1.45 86.68 3 5.39.3 10.78.69 16.17.88 1.93.07 3.85.11 5.78.08 3.21 0 7.35-1 9.61 1.29 4.52 4.62-2.18 14.43-4.06 19.43q-4.54 12.15-9.31 24.2c-6.84 17.24-14.06 34.3-21.43 51.32-6.44 14.95-13.6 29.88-18.68 45.32-1.66 5.07-3.16 12.42-7.83 15.66-5.38 3.75-14.12 3.68-20.38 3.92-28.78 1.09-57.59.59-86.4.55-54.48-.07-109-.94-163.44-1.18q-8.55 0-17.1 0c-3.93 0-3.93 6.1 0 6.1 56 0 112 1 168 1.19q44.54.16 89-.34c10.77-.13 28.33 1.47 36.32-7.51 3.81-4.28 5.52-10.19 7.27-15.52 2.5-7.62 5.68-15 8.79-22.4 7.21-17.11 14.78-34.07 22-51.2 7.07-16.88 13.1-34.19 20.17-51.06 2.24-5.35 5.61-11.2 4.56-17.21-1.16-6.62-5.89-8.91-12.16-8.73-4.16.12-8.28.2-12.43 0-19.9-.9-39.76-2-59.67-2.64-18.73-.56-37.46-1.32-56.2-1.38-9.52 0-19.06.05-28.56.6-2.88.16-5.67.34-7.8 2.5-2.35 2.39-3.28 6.52-4.48 9.54-13.73 34.45-27.81 68.75-41.51 103.21-3.13 7.86-5.82 19.54-15.2 21.93-5.62 1.43-11.77 1.05-17.52 1.05h-56.28c-3.92 0-3.93 6.09 0 6.09z"/><path d="m422.3 354.88c26.72.92 53.66 5.2 72.76 25.61 9.17 9.79 16.39 21.43 23.17 32.95a342.94 342.94 0 0 1 19.38 38.31c1.55 3.59 6.8.49 5.26-3.08a342.62 342.62 0 0 0 -20.77-40.67c-7.23-12.05-15-24.24-25-34.19-20-19.84-47.79-24.11-74.79-25-3.92-.14-3.92 6 0 6.09z"/><path d="m523.7 475.51c1.43-7.94 4.75-16 12-20.22 7.55-4.42 17.23-2.84 21.24 5.43 1.71 3.53 7 .44 5.26-3.08-4.71-9.71-16.29-13.17-26.05-9.32-10.68 4.2-16.42 14.77-18.35 25.57-.69 3.84 5.18 5.48 5.87 1.62z"/><path d="m530.08 496.14a25.57 25.57 0 0 1 -.69-7.29c.17-3.93-5.92-3.92-6.1 0a31.48 31.48 0 0 0 .91 8.91c.95 3.8 6.83 2.19 5.88-1.62z"/><path d="m544 492.68a6 6 0 0 1 .07-4.43 3.07 3.07 0 0 0 -2.13-3.75 3.11 3.11 0 0 0 -3.75 2.13 12.15 12.15 0 0 0 .55 9.13c.66 1.5 2.86 1.85 4.17 1.09a3.13 3.13 0 0 0 1.09-4.17z"/><path d="m559.07 494.28-.67-8.13a3.12 3.12 0 0 0 -3-3 3.07 3.07 0 0 0 -3 3l.66 8.13a3.13 3.13 0 0 0 3 3.05 3.08 3.08 0 0 0 3.05-3.05z"/><path d="m458.26 411.64a188.14 188.14 0 0 1 23.64 53c1 3.78 6.91 2.18 5.88-1.62a193.78 193.78 0 0 0 -24.26-54.46c-2.12-3.28-7.4-.23-5.26 3.08z"/><g fill="#78a5a3"><path d="m674.22 436.42c-3.57-1.35-6.71 1.09-8.53 4s-3.41 6.33-2.17 9.73c1.33 3.65 7.23 2.07 5.88-1.62-.53-1.46.22-2.7.93-4 .46-.81 1.17-2.66 2.27-2.24 3.68 1.38 5.27-4.52 1.62-5.88z"/><path d="m658.9 435.49c-3.95 5.92.15 12.14 4.22 16.61 2.64 2.91 6.94-1.41 4.31-4.31-2.17-2.38-5.5-5.87-3.26-9.22s-3.1-6.33-5.27-3.08z"/><path d="m650.44 445.65a10.72 10.72 0 0 0 15.91 5.92c3.34-2.05.28-7.33-3.07-5.27-2.63 1.62-5.92.8-7-2.27-1.26-3.69-7.16-2.1-5.88 1.62z"/><path d="m651.3 459.56a13.91 13.91 0 0 0 16.52-8.64c1.42-3.66-4.47-5.24-5.88-1.62a7.68 7.68 0 0 1 -9 4.38c-3.8-1-5.42 4.88-1.62 5.88z"/><path d="m661.36 469.14a17.57 17.57 0 0 0 7.12-17.43c-.62-3.87-6.5-2.23-5.88 1.62a11.12 11.12 0 0 1 -4.32 10.55c-3.13 2.3-.09 7.59 3.08 5.26z"/><path d="m672.19 467.78c6.79-4.45 5.39-15.26-3-16.79-3.84-.69-5.48 5.18-1.62 5.88 2.82.52 4.34 3.81 1.54 5.64-3.27 2.15-.21 7.43 3.08 5.27z"/><path d="m683.6 450.06c-3.65-7-16.63-5.86-19 1.63-1.21 3.75 4.67 5.35 5.87 1.62.4-1.21 2.77-1.58 3.85-1.74 1.69-.24 3.23 0 4.06 1.57 1.8 3.49 7.07.41 5.26-3.08z"/><path d="m385.21 421a53.72 53.72 0 0 0 24.28 1c8.72-1.66 16.82-5.66 25.73-6.43l-2.64-4.57c-4.65 9.12-12.33 15.68-19.91 22.3a238.43 238.43 0 0 0 -22.73 23.33 3.08 3.08 0 0 0 2.15 5.2c10 .28 19.11-3.34 28.55-6.05a56.44 56.44 0 0 1 14.76-2.35c4.59-.07 8.86-.28 12.83-2.81a3.08 3.08 0 0 0 .62-4.79 101.7 101.7 0 0 0 -24.2-15.93c-3.53-1.65-6.63 3.6-3.08 5.27a95.73 95.73 0 0 1 23 15l.62-4.78c-4.18 2.66-9.11 1.73-13.81 2.12a64.58 64.58 0 0 0 -12.38 2.4c-8.91 2.54-17.5 6.09-26.93 5.83l2.16 5.2a248.71 248.71 0 0 1 23.91-24.35c7.58-6.62 15-13.42 19.69-22.51 1-1.88-.18-4.8-2.63-4.59-7.78.68-14.89 3.41-22.35 5.45a48.48 48.48 0 0 1 -26 .15c-3.79-1-5.41 4.85-1.62 5.88z"/><path d="m383.79 424.12 17.51 16.37c2.86 2.68 7.18-1.62 4.31-4.31l-17.51-16.37c-2.86-2.68-7.18 1.62-4.31 4.31z"/></g><path d="m322.46 555.39c27.31-.22 56.77-.42 81.71 12.31 25.83 13.19 40.18 39.36 46.73 66.69 4.38 18.27 5.66 37.08 6.94 55.77.27 3.89 6.37 3.92 6.1 0-2.2-32-4.72-65.53-21.47-93.81-15.34-25.91-40.54-40-69.83-44.54-16.6-2.55-33.42-2.65-50.18-2.52-3.93 0-3.94 6.13 0 6.1z"/><path d="m459.28 710.5v1a3 3 0 1 0 6.09 0v-1a3 3 0 0 0 -6.09 0z"/><path d="m481.17 550.72c17.35-3.72 35.83-4.83 53.35-1.72 15.85 2.77 29 13.66 37.72 26.81 10 15 14.88 32.67 19.39 49.94q7.25 27.65 12.37 55.85 5.89 32.55 8.89 65.51a3.09 3.09 0 0 0 3 3c11.29-.6 22.16 4.17 33.46 3.57 3.91-.21 3.93-6.31 0-6.1-11.29.6-22.16-4.17-33.46-3.56l3.05 3a763.35 763.35 0 0 0 -21.46-123c-8.28-31.72-21.37-70.3-56.89-80-19.39-5.3-41.69-3.42-61.07.76-3.84.83-2.21 6.71 1.62 5.88z"/><path d="m477.42 649.74c8.33-1.35 16.8-.6 25.14-1.94l-3.85-2.94c-4.06 32.61 20.91 58.75 35 85.69a97.78 97.78 0 0 1 8.84 22.93c1.5 6.45 2.34 13 3.79 19.49 2.7 12.11 8.26 23.94 20.77 28.29 17.15 6 34.16-4 50.7-7.28 3.84-.75 2.22-6.63-1.62-5.87-14.32 2.81-28.78 11.24-43.72 8.28-14.09-2.79-18.53-16-21-28.51-2.56-13-5-25.32-11-37.36-6.49-13.18-15-25.24-22.35-37.91-8.59-14.77-15.51-30.3-13.34-47.75.27-2.17-2.15-3.22-3.86-2.94-8.33 1.34-16.8.59-25.14 1.94-3.87.62-2.23 6.5 1.62 5.88z"/><path d="m629.28 785.27c-.45.21.94-.08.34 0a4.71 4.71 0 0 1 .65 0c-.28 0-.23 0 .15.07a1.61 1.61 0 0 1 1 .69 3.12 3.12 0 0 0 4.17 1.09 3.07 3.07 0 0 0 1.09-4.17 8.16 8.16 0 0 0 -10.47-2.95 3.07 3.07 0 0 0 -1.1 4.17 3.11 3.11 0 0 0 4.17 1.09z"/><path d="m641.19 775.31c-.33.24-.36.27-.08.1-.41.15-.45.17-.13.06s.28-.07-.17 0h.44c-.44-.07-.5-.07-.16 0s.28.09-.12-.06c.28.17.25.14-.09-.11.23.24.22.19 0-.13a3.13 3.13 0 0 0 4.17 1.1c1.26-.82 2.1-2.8 1.09-4.18a6.27 6.27 0 0 0 -4.63-2.7 6.08 6.08 0 0 0 -4.59 1.59 3.07 3.07 0 0 0 0 4.31 3.12 3.12 0 0 0 4.31 0z"/><path d="m645.72 764.37a14.62 14.62 0 0 1 7.33.64c3.73 1.24 5.33-4.64 1.62-5.88a21.18 21.18 0 0 0 -10.57-.64 3.08 3.08 0 0 0 -2.13 3.75 3.12 3.12 0 0 0 3.75 2.13z"/><path d="m477.93 650.42a200.48 200.48 0 0 1 -6-53.66 193.2 193.2 0 0 1 2.62-27.48c1.39-8.2 3.21-16.21 8.22-23 2.33-3.17-3-6.21-5.26-3.08-5.29 7.2-7.37 15.8-8.84 24.48a202.85 202.85 0 0 0 3.39 84.32c.95 3.8 6.83 2.19 5.87-1.62z"/><path d="m612 547.16c34.67 8.74 30 54 30.39 81.41q.38 27.21.73 54.41l.36 26.71.18 12.87c0 3.89-.17 5.32 3 7.62a294.71 294.71 0 0 1 42.2 37.17c2.69 2.87 7-1.45 4.31-4.31a300.26 300.26 0 0 0 -44.88-39.16l1.51 2.63q-.76-56.38-1.52-112.78c-.21-16 .09-33-6.49-48-5.29-12-15.34-21.26-28.18-24.5-3.81-1-5.43 4.92-1.62 5.88z"/><path d="m675.29 775.5 2.63 2.13a3.27 3.27 0 0 0 2.15.89 3.12 3.12 0 0 0 2.16-.89c1-1.11 1.32-3.24 0-4.31l-2.63-2.13a3.33 3.33 0 0 0 -2.16-.89 3.08 3.08 0 0 0 -2.15.89c-1 1.11-1.33 3.24 0 4.31z"/><path d="m660.5 775.41a7.06 7.06 0 0 0 4.92 7 3.07 3.07 0 0 0 3.75-2.13 3.12 3.12 0 0 0 -2.13-3.75c-.48-.17.09.05.1 0s-.6-.48-.26-.15 0-.1-.12-.14c-.25-.21.3.53 0 0a2.3 2.3 0 0 1 -.22-.4s.17.59.07.08 0 .4 0 0c0-.19 0-.38 0-.57a3.06 3.06 0 0 0 -3.05-3 3.13 3.13 0 0 0 -3 3z"/><path d="m648.37 778.27-.37.73a3 3 0 0 0 5.26 3.08l.34-.68a3 3 0 1 0 -5.26-3.08z"/><path d="m288.23 318.48c-41.79 5.2-93.33 13.48-117 53-14 23.34-13.72 52-14.87 78.33-1.25 28.55-2.22 57.12-1.83 85.7s2.12 57.06 6.45 85.27c4 26.32 9.83 53.66 21.47 77.78 11.19 23.22 30.46 38.17 54.39 46.79 25.51 9.2 53.46 12.73 80.31 15.39 70.42 7 141.3.79 211.35-7.31 3.85-.44 3.89-6.54 0-6.09-59.85 6.91-120.14 12.43-180.44 9.55-28.29-1.34-56.68-4.4-84.39-10.39-23.37-5-47.59-13.27-63.73-31.87-17.16-19.79-23.84-48.38-29.1-73.4-5.58-26.59-8.28-53.72-9.5-80.83-1.22-27.4-.9-54.83 0-82.23.44-13.38 1-26.76 1.63-40.14.63-13.69 1.27-27.5 4.53-40.86 6.36-26.16 24.15-44.53 48.29-55.39 22.72-10.22 47.95-14.12 72.48-17.18 3.84-.48 3.89-6.58 0-6.09z"/><path d="m649.52 546.74c17 1.74 29.12 17.74 34.19 32.82 6 18 4.89 37.7 5 56.43q.14 29.87.26 59.74c.06 15.22-.59 42.82-22.14 42.92-3.92 0-3.93 6.12 0 6.1 13.69-.06 23.3-11.57 26.39-24 1.94-7.83 1.88-16 1.85-24q-.06-14.43-.13-28.87c-.07-18.27.14-36.57-.31-54.84-.38-16-2.15-32.41-10.07-46.58-7.38-13.2-19.51-24.19-35-25.78-3.9-.41-3.87 5.69 0 6.09z"/><path d="m229.73 744.6a164.73 164.73 0 0 0 -8.4 39.61 3.05 3.05 0 0 0 2.24 2.94 144.83 144.83 0 0 0 43.37 2.2 3.21 3.21 0 0 0 2.94-2.24 61.13 61.13 0 0 1 16.33-25.11c2.87-2.69-1.45-7-4.32-4.31a67.56 67.56 0 0 0 -17.89 27.8l2.94-2.24a139.28 139.28 0 0 1 -41.75-2l2.24 2.94a158.25 158.25 0 0 1 8.17-38c1.29-3.72-4.6-5.32-5.87-1.63z"/><path d="m434.25 760.89a95.75 95.75 0 0 1 8.36 15.59c1.49 3.57 2.23 8.63 5.06 11.48s7.66 2.95 11.39 3.44a106.66 106.66 0 0 0 17.41.89 111 111 0 0 0 15.42-1.59c3.32-.57 8.05-1 10.07-4.21 2.2-3.53-.58-8.09-1.83-11.46l-7-18.73c-1.36-3.64-7.25-2.07-5.88 1.62l4.91 13.08c.86 2.33 5.35 10.76 3.68 12.64-.69.77-3.76.83-4.67 1-2.14.39-4.3.71-6.46 1a103.87 103.87 0 0 1 -12.84.62 100.81 100.81 0 0 1 -12.4-.9c-1.83-.24-4.6-.19-6.24-1.07-2.09-1.11-2.24-2.77-2.93-4.71a101.6 101.6 0 0 0 -10.79-21.75c-2.13-3.27-7.41-.22-5.26 3.08z"/><g fill="#78a5a3"><path d="m201.2 674.87c9-5.57 17.56 2.36 21.71 10a37.13 37.13 0 0 1 4.33 13.13 28.65 28.65 0 0 1 0 6.48c0 .52-1.93 6.92-.79 7.07l2.24 2.94-.05-.5c-.37-3.87-6.47-3.91-6.1 0v.5c.12 1.2.86 2.76 2.24 2.94 6.11.84 7.65-6.66 8.31-11.36a39.11 39.11 0 0 0 -3.59-21.47c-5.34-11.69-18.35-23.18-31.48-15-3.33 2.07-.27 7.34 3.08 5.27z"/><path d="m279.57 630.37c-13.22 3.63-19 21.14-16.91 33.46 2 12 13.44 22.48 26.12 20 12.09-2.32 22.7-17.5 23.26-29.36.6-12.78-9.81-23.69-21.6-26.81-3.8-1-5.42 4.87-1.62 5.88 8.63 2.28 16.45 9.59 17.1 18.89.61 8.85-7.24 20.82-15.25 24.46-9.64 4.37-19.71-3.85-21.82-13.11s2-24.74 12.34-27.59c3.78-1 2.17-6.92-1.62-5.87z"/><path d="m201.66 582.55c-9.91 10-9.35 26.5 2.25 35s26.32 3.44 34.81-7c8.65-10.68 13.95-28.45 4.79-40.34-10.65-13.85-26.47-4.67-36.47 4.61-2.88 2.67 1.44 7 4.31 4.31 7.51-7 20.36-16 28.1-4.14 6 9.23 1.42 22.6-4.63 30.7-5.84 7.81-16 13.35-25.42 8.19-10.17-5.58-11.38-18.95-3.43-26.95 2.77-2.79-1.54-7.1-4.31-4.31z"/><path d="m274.79 506.34c-3.21 8.78-6.12 19.15 0 27.39 5.63 7.55 16.4 14.95 26 15.07 3.92.05 3.92-6 0-6.1-7.34-.09-16.19-6.38-20.68-12-5.36-6.67-2.06-15.66.53-22.76 1.35-3.69-4.54-5.28-5.87-1.62z"/><path d="m208.19 458.76c-11.73 7.08-16.34 22.79-15.24 35.86 1.23 14.64 14.57 21.94 28.09 17.06s26-17.54 25.78-32.61c-.23-14.81-11.58-26.08-25.89-28-3.87-.52-3.84 5.58 0 6.09 11.24 1.51 20 11.25 19.78 22.7-.28 11.95-10.53 21.93-21.29 25.93-5 1.87-11 2.13-15.53-1.24s-5.12-9.16-4.93-14.34c.37-9.77 3.47-20.86 12.31-26.19 3.36-2 .3-7.3-3.08-5.27z"/><path d="m182.35 403.87c6.26 3.48 13.26 2.48 19.29-1.05 6.92-4.06 13.72-10.46 18.77-16.64 7.93-9.71 10.84-24.79-.48-33.23-3.15-2.35-6.19 2.94-3.08 5.26 9.17 6.84 3.13 19.65-2.92 26.14-6.33 6.8-18.28 19.94-28.5 14.25-3.44-1.9-6.52 3.36-3.08 5.27z"/><path d="m278.11 342.76c-3.4 2.94-7.22 8.14-3.53 12.41a7 7 0 0 0 5 2.41c2.43.1 4.1-1.39 5-3.52.63-1.52-.69-3.35-2.13-3.75a3.13 3.13 0 0 0 -3.75 2.13 1.28 1.28 0 0 1 .94-.95c.29 0 .32 0 .09 0 0 0-.11 0-.21-.06s-.41-.57-.29.08c-.31-1.73 2.13-3.49 3.22-4.43 3-2.57-1.36-6.87-4.31-4.31z"/><path d="m369.77 582.86c-11.88-.77-21.92 9.5-22.91 21-1 12 8.14 22.46 18.82 26.59 11.23 4.35 24.47 2 32-7.75 6.59-8.62 7.94-20.61 2.45-30.1-2-3.39-7.24-.32-5.27 3.08 4 6.83 3.25 15.23-.94 21.81-5.14 8.09-14.86 10.61-23.87 8-8.46-2.44-16.53-9.69-17.12-18.93s7.43-18.26 16.88-17.65c3.92.25 3.9-5.84 0-6.1z"/><path d="m360.06 678.29c-11.52 5-21.6 15.34-20.24 28.78s15 20.26 27 21.62 24-5.22 28.34-16.87c4.26-11.32-.58-23.77-10.2-30.58-3.21-2.27-6.26 3-3.07 5.27 7.27 5.14 10.74 14.86 7.51 23.31-3.79 9.9-13.94 14.34-24 12.52-9.53-1.71-19.92-7.26-19.6-18.25.29-10.1 8.82-16.84 17.34-20.53 3.59-1.56.49-6.81-3.08-5.27z"/><path d="m440.24 678.76c-9.59 7.37-11 21.85-2.28 30.54 2.78 2.77 7.1-1.53 4.31-4.31-5.67-5.65-5.47-16 1-21 3.07-2.36 0-7.66-3.07-5.27z"/><path d="m498.38 701.21c-3.41 5.55-6.05 13.28-4.16 19.82 1.4 4.82 7.09 8.34 11.59 4.93 3.08-2.34.05-7.64-3.08-5.27-3.35 2.54-2.88-5.58-2.7-6.82a24.5 24.5 0 0 1 3.62-9.59c2.06-3.35-3.21-6.41-5.27-3.07z"/><path d="m287.52 734.59c10.38-11.52 25.86-.88 35.1 6.37 3.05 2.4 7.39-1.88 4.31-4.31-11.86-9.32-30.76-20.77-43.72-6.38-2.62 2.91 1.68 7.24 4.31 4.32z"/></g><path d="m356.87 277.38h7.11v7.11h-7.11z" fill="#cae5e3"/><g fill="#78a5a3"><path d="m444.32 245.83a44 44 0 0 1 16.28-9c3.74-1.14 2.15-7-1.62-5.88a51.7 51.7 0 0 0 -19 10.59c-3 2.59 1.37 6.89 4.32 4.32z"/><path d="m448.45 264.47 7.11-1c1.63-.24 2.53-2.31 2.13-3.75a3.12 3.12 0 0 0 -3.75-2.13l-7.11 1c-1.63.24-2.53 2.31-2.13 3.75a3.13 3.13 0 0 0 3.75 2.13z"/><path d="m450.49 284.82 7.11-1c1.63-.23 2.53-2.31 2.13-3.75a3.13 3.13 0 0 0 -3.75-2.13l-7.11 1c-1.63.23-2.53 2.3-2.13 3.75a3.12 3.12 0 0 0 3.75 2.12z"/></g></svg>
